<svg width="99" height="40" viewBox="0 0 99 40" fill="none" xmlns="http://www.w3.org/2000/svg">
<rect width="40" height="40" rx="20" fill="url(#paint0_radial_4107_2110)"/>
<path d="M6.75391 20C6.75391 20 14.2369 20.0568 17.2329 17.0608C20.2289 14.0647 20.0444 6.70955 20.0444 6.70955C20.0444 6.70955 20.0122 14.0894 22.9836 17.0608C25.955 20.0322 33.3348 20 33.3348 20C33.3348 20 26.0588 20.1196 23.1114 23.067C20.164 26.0145 20.0444 33.2905 20.0444 33.2905C20.0444 33.2905 20.2542 26.0883 17.2329 23.067C14.2116 20.0457 6.75391 20 6.75391 20Z" fill="url(#paint1_linear_4107_2110)"/>
<path d="M55.2822 19.2607H57.0117V21.2324H55.2822L55.2734 27.627V27.7559H53.3018V27.626L53.3096 21.2324H52V19.2607H53.3096V15.1572H55.2822V19.2607ZM60.7451 23.9033C60.7451 24.2486 60.8297 24.561 60.998 24.8418C61.1682 25.1253 61.3953 25.3513 61.6787 25.5215C61.9596 25.6846 62.2688 25.7665 62.6084 25.7666C62.9543 25.7666 63.2632 25.6842 63.5381 25.5215C63.8215 25.3514 64.0453 25.1257 64.21 24.8428L64.2109 24.8418C64.3794 24.5609 64.4639 24.2488 64.4639 23.9033V19.0459H66.4365V19.1758L66.4443 27.4121V27.542H64.4736L64.4727 27.4131L64.4668 26.8506C64.2191 27.0922 63.9307 27.2908 63.6025 27.4463C63.1674 27.6523 62.7011 27.7559 62.2051 27.7559C61.5738 27.7558 60.996 27.6017 60.4756 27.293C59.9576 26.9855 59.5428 26.5717 59.2354 26.0537C58.9266 25.5332 58.7725 24.9546 58.7725 24.3232V19.0459H60.7451V23.9033ZM71.4883 19.2607H73.2178V21.2324H71.4883L71.4795 27.627V27.7559H69.5078V27.626L69.5156 21.2324H68.2061V19.2607H69.5156V15.1572H71.4883V19.2607ZM76.9512 22.6973L79.7861 19.3076L79.8252 19.2607H82.4033L82.2246 19.4736L79.4736 22.7559L82.2627 27.5615L82.375 27.7559H80.0986L80.0615 27.6914L78.1279 24.3594L76.9512 25.7627V27.7559H74.9785V15.1426H76.9512V22.6973ZM86.0127 23.9033C86.0127 24.2486 86.0973 24.561 86.2656 24.8418C86.4357 25.1253 86.6629 25.3513 86.9463 25.5215C87.2272 25.6846 87.5364 25.7665 87.876 25.7666C88.2219 25.7666 88.5307 25.6842 88.8057 25.5215C89.0891 25.3514 89.3129 25.1257 89.4775 24.8428L89.4785 24.8418C89.647 24.5609 89.7314 24.2488 89.7314 23.9033V19.0459H91.7041V19.1758L91.7119 27.4121V27.542H89.7412L89.7402 27.4131L89.7344 26.8506C89.4866 27.0922 89.1983 27.2908 88.8701 27.4463C88.435 27.6523 87.9687 27.7559 87.4727 27.7559C86.8414 27.7558 86.2636 27.6017 85.7432 27.293C85.2252 26.9855 84.8104 26.5717 84.5029 26.0537C84.1942 25.5332 84.04 24.9546 84.04 24.3232V19.0459H86.0127V23.9033ZM60.3594 27.0664C60.4183 27.1064 60.4789 27.1448 60.541 27.1816C60.6047 27.2194 60.6699 27.2551 60.7354 27.2881C60.6699 27.2551 60.6056 27.2194 60.542 27.1816C60.4542 27.1296 60.3706 27.0729 60.2891 27.0146C60.3127 27.0315 60.3352 27.05 60.3594 27.0664ZM85.626 27.0664C85.6851 27.1066 85.7463 27.1446 85.8086 27.1816C85.8723 27.2194 85.9374 27.2551 86.0029 27.2881C85.9375 27.2551 85.8732 27.2194 85.8096 27.1816C85.7198 27.1283 85.6341 27.0705 85.5508 27.0107C85.576 27.029 85.6001 27.0488 85.626 27.0664ZM85.4531 26.9404C85.4699 26.9534 85.4879 26.9648 85.5049 26.9775C85.4813 26.96 85.4576 26.9429 85.4346 26.9248L85.4531 26.9404ZM60.1855 26.9404C60.1999 26.9515 60.2149 26.9618 60.2295 26.9727C60.2084 26.9569 60.1876 26.941 60.167 26.9248L60.1855 26.9404ZM59.2432 25.7979C59.2755 25.8618 59.3098 25.9251 59.3467 25.9873C59.3836 26.0496 59.4228 26.1108 59.4629 26.1699H59.4639C59.4236 26.1106 59.3847 26.0498 59.3477 25.9873C59.3107 25.9249 59.2757 25.8618 59.2432 25.7979ZM84.5107 25.7979C84.5431 25.8618 84.5773 25.9251 84.6143 25.9873C84.6512 26.0496 84.6903 26.1108 84.7305 26.1699H84.7314C84.6912 26.1106 84.6523 26.0498 84.6152 25.9873C84.5782 25.9249 84.5433 25.8618 84.5107 25.7979ZM94.0088 12.2422C94.0087 12.2587 94.0025 14.559 94.9307 15.4873C95.856 16.4126 98.145 16.4093 98.1758 16.4092C98.1451 16.4097 95.8886 16.4525 94.9707 17.3701C94.0466 18.2942 94.0088 20.5762 94.0088 20.5762C94.0088 20.5762 94.0752 18.3174 93.1279 17.3701C92.1875 16.4299 89.8764 16.4094 89.8428 16.4092C89.8765 16.4094 92.1954 16.4198 93.1279 15.4873C94.064 14.551 94.0092 12.2574 94.0088 12.2422ZM71.3584 19.3906H73.0879V19.3896H71.3584V19.3906Z" fill="white"/>
<defs>
<radialGradient id="paint0_radial_4107_2110" cx="0" cy="0" r="1" gradientUnits="userSpaceOnUse" gradientTransform="translate(28.1111 7.44444) rotate(113.025) scale(43.4626 77.43)">
<stop stop-color="white"/>
<stop offset="1" stop-color="#DDDAFF"/>
</radialGradient>
<linearGradient id="paint1_linear_4107_2110" x1="26.3965" y1="11.9795" x2="20.1683" y2="25.873" gradientUnits="userSpaceOnUse">
<stop stop-color="#CFCAFF"/>
<stop offset="1" stop-color="#6246FF"/>
</linearGradient>
</defs>
</svg>
