<svg width="17" height="25" viewBox="0 0 17 25" fill="none" xmlns="http://www.w3.org/2000/svg">
<g clip-path="url(#clip0_4107_2168)">
<path d="M15.566 4.17512C15.8816 4.39387 16.0472 4.77199 15.9878 5.15012L13.9878 18.1501C13.941 18.4532 13.7566 18.7189 13.4878 18.8689C13.2191 19.0189 12.8972 19.0376 12.6128 18.9189L8.87533 17.3657L6.7347 19.6814C6.45658 19.9845 6.01908 20.0845 5.6347 19.9345C5.25033 19.7845 5.00033 19.4126 5.00033 19.0001V16.3876C5.00033 16.2626 5.0472 16.1439 5.13158 16.0532L10.3691 10.3376C10.5503 10.1407 10.5441 9.83762 10.3566 9.65012C10.1691 9.46262 9.86595 9.45012 9.66908 9.62824L3.31283 15.2751L0.553451 13.8939C0.222201 13.7282 0.00970049 13.397 0.000325486 13.0282C-0.00904951 12.6595 0.184701 12.3157 0.503451 12.1314L14.5035 4.13137C14.8378 3.94074 15.2503 3.95949 15.566 4.17512Z" fill="white"/>
</g>
<defs>
<clipPath id="clip0_4107_2168">
<path d="M0 4H16V20H0V4Z" fill="white"/>
</clipPath>
</defs>
</svg>
